<svg xmlns="http://www.w3.org/2000/svg" viewBox="0 0 1440 900" role="img" aria-labelledby="title description">
  <title id="title">Reviewable release cycle</title>
  <desc id="description">A warm process map connects discovery, tests, implementation, review, browser quality assurance, release, and observation through one continuous feedback rail.</desc>
  <defs>
    <marker id="arrow" viewBox="0 0 12 12" refX="10" refY="6" markerWidth="10" markerHeight="10" orient="auto-start-reverse">
      <path d="M1 1l10 5-10 5z" fill="#473C33"/>
    </marker>
  </defs>

  <rect width="1440" height="900" fill="#FFFFFF"/>
  <path d="M36 36h1368v828H36z" fill="#FFFFFF" stroke="#473C33" stroke-width="4"/>
  <path d="M36 36h1368v20H36z" fill="#FEC868"/>

  <g font-family="Mona Sans, Arial, sans-serif" fill="#473C33">
    <text x="84" y="112" font-size="18" font-weight="760" letter-spacing="2">ENGINEERING PRACTICE · 01—07</text>
    <text x="84" y="180" font-size="58" font-weight="760" letter-spacing="-2">REVIEWABLE</text>
    <text x="84" y="238" font-size="58" font-weight="760" letter-spacing="-2">RELEASES</text>
    <text x="86" y="280" font-size="20" font-weight="620">One visible path from a clear brief to production evidence.</text>
  </g>

  <g transform="translate(1105 78)">
    <circle cx="112" cy="112" r="110" fill="#FEC868" stroke="#473C33" stroke-width="4"/>
    <path d="M52 58h120v108H52z" fill="#ABC270" stroke="#473C33" stroke-width="4"/>
    <path d="M52 110h120" fill="none" stroke="#473C33" stroke-width="4"/>
    <path d="M80 82h64M80 138h42" fill="none" stroke="#FFFFFF" stroke-linecap="round" stroke-width="8"/>
    <circle cx="170" cy="166" r="34" fill="#FDA769" stroke="#473C33" stroke-width="4"/>
    <path d="M155 166l11 11 21-25" fill="none" stroke="#473C33" stroke-linecap="round" stroke-linejoin="round" stroke-width="6"/>
  </g>

  <path d="M110 436h1218" fill="none" stroke="#473C33" stroke-linecap="round" stroke-width="28"/>
  <path d="M110 436h1218" fill="none" stroke="#FEC868" stroke-linecap="round" stroke-width="18"/>

  <g font-family="Mona Sans, Arial, sans-serif" fill="#473C33" text-anchor="middle">
    <g transform="translate(120 436)">
      <path d="M0-104v70" stroke="#473C33" stroke-width="4"/>
      <circle r="31" fill="#ABC270" stroke="#473C33" stroke-width="4"/>
      <circle cy="-104" r="23" fill="#FFFFFF" stroke="#473C33" stroke-width="4"/>
      <text y="7" font-size="18" font-weight="760">01</text>
      <text y="-98" font-size="14" font-weight="760">DISCOVERY</text>
    </g>
    <g transform="translate(320 436)">
      <path d="M0 34v70" stroke="#473C33" stroke-width="4"/>
      <circle r="31" fill="#FDA769" stroke="#473C33" stroke-width="4"/>
      <circle cy="104" r="23" fill="#FFFFFF" stroke="#473C33" stroke-width="4"/>
      <text y="7" font-size="18" font-weight="760">02</text>
      <text y="110" font-size="14" font-weight="760">TEST</text>
    </g>
    <g transform="translate(520 436)">
      <path d="M0-104v70" stroke="#473C33" stroke-width="4"/>
      <circle r="31" fill="#ABC270" stroke="#473C33" stroke-width="4"/>
      <circle cy="-104" r="23" fill="#FFFFFF" stroke="#473C33" stroke-width="4"/>
      <text y="7" font-size="18" font-weight="760">03</text>
      <text y="-98" font-size="14" font-weight="760">BUILD</text>
    </g>
    <g transform="translate(720 436)">
      <path d="M0 34v70" stroke="#473C33" stroke-width="4"/>
      <circle r="31" fill="#FDA769" stroke="#473C33" stroke-width="4"/>
      <circle cy="104" r="23" fill="#FFFFFF" stroke="#473C33" stroke-width="4"/>
      <text y="7" font-size="18" font-weight="760">04</text>
      <text y="110" font-size="14" font-weight="760">REVIEW</text>
    </g>
    <g transform="translate(920 436)">
      <path d="M0-104v70" stroke="#473C33" stroke-width="4"/>
      <circle r="31" fill="#ABC270" stroke="#473C33" stroke-width="4"/>
      <circle cy="-104" r="23" fill="#FFFFFF" stroke="#473C33" stroke-width="4"/>
      <text y="7" font-size="18" font-weight="760">05</text>
      <text y="-98" font-size="14" font-weight="760">BROWSER QA</text>
    </g>
    <g transform="translate(1120 436)">
      <path d="M0 34v70" stroke="#473C33" stroke-width="4"/>
      <circle r="31" fill="#FDA769" stroke="#473C33" stroke-width="4"/>
      <circle cy="104" r="23" fill="#FFFFFF" stroke="#473C33" stroke-width="4"/>
      <text y="7" font-size="18" font-weight="760">06</text>
      <text y="110" font-size="14" font-weight="760">RELEASE</text>
    </g>
    <g transform="translate(1320 436)">
      <path d="M0-104v70" stroke="#473C33" stroke-width="4"/>
      <circle r="31" fill="#ABC270" stroke="#473C33" stroke-width="4"/>
      <circle cy="-104" r="23" fill="#FFFFFF" stroke="#473C33" stroke-width="4"/>
      <text y="7" font-size="18" font-weight="760">07</text>
      <text y="-98" font-size="14" font-weight="760">OBSERVE</text>
    </g>
  </g>

  <path d="M1320 500v238H222c-58 0-102-44-102-102v-92" fill="none" stroke="#473C33" stroke-linecap="round" stroke-linejoin="round" stroke-width="4" marker-end="url(#arrow)"/>
  <g font-family="Mona Sans, Arial, sans-serif" fill="#473C33">
    <text x="566" y="775" font-size="17" font-weight="760" letter-spacing="1.5">OBSERVE · LEARN · DOCUMENT · RETURN WITH EVIDENCE</text>
  </g>

  <g transform="translate(230 590)" font-family="Mona Sans, Arial, sans-serif" fill="#473C33">
    <path d="M0 0h250v102H0z" fill="#FFFFFF" stroke="#473C33" stroke-width="4"/>
    <path d="M0 0h250v27H0z" fill="#ABC270" stroke="#473C33" stroke-width="4"/>
    <circle cx="21" cy="14" r="5" fill="#FEC868"/>
    <circle cx="39" cy="14" r="5" fill="#FDA769"/>
    <text x="18" y="64" font-size="15" font-weight="760">TESTS</text>
    <text x="18" y="87" font-size="22" font-weight="760">PASS ✓</text>
  </g>
  <g transform="translate(590 590)" font-family="Mona Sans, Arial, sans-serif" fill="#473C33">
    <path d="M0 0h250v102H0z" fill="#FFFFFF" stroke="#473C33" stroke-width="4"/>
    <path d="M0 0h250v27H0z" fill="#FEC868" stroke="#473C33" stroke-width="4"/>
    <circle cx="21" cy="14" r="5" fill="#FDA769"/>
    <circle cx="39" cy="14" r="5" fill="#ABC270"/>
    <text x="18" y="64" font-size="15" font-weight="760">REVIEW</text>
    <text x="18" y="87" font-size="22" font-weight="760">CLEAR ✓</text>
  </g>
  <g transform="translate(950 590)" font-family="Mona Sans, Arial, sans-serif" fill="#473C33">
    <path d="M0 0h250v102H0z" fill="#FFFFFF" stroke="#473C33" stroke-width="4"/>
    <path d="M0 0h250v27H0z" fill="#FDA769" stroke="#473C33" stroke-width="4"/>
    <circle cx="21" cy="14" r="5" fill="#ABC270"/>
    <circle cx="39" cy="14" r="5" fill="#FEC868"/>
    <text x="18" y="64" font-size="15" font-weight="760">PREVIEW</text>
    <text x="18" y="87" font-size="22" font-weight="760">CHECKED ✓</text>
  </g>

  <g transform="translate(1218 687) rotate(-6)" font-family="Mona Sans, Arial, sans-serif" fill="#473C33" text-anchor="middle">
    <circle cx="74" cy="74" r="68" fill="#FDA769" stroke="#473C33" stroke-width="6"/>
    <circle cx="74" cy="74" r="54" fill="none" stroke="#473C33" stroke-width="3" stroke-dasharray="5 7"/>
    <text x="74" y="61" font-size="17" font-weight="760">READY</text>
    <text x="74" y="83" font-size="17" font-weight="760">TO</text>
    <text x="74" y="105" font-size="17" font-weight="760">SHIP</text>
  </g>
</svg>
