<svg xmlns="http://www.w3.org/2000/svg" viewBox="0 0 1440 900" role="img" aria-labelledby="title description">
  <title id="title">Enterprise systems at operational scale</title>
  <desc id="description">A warm systems map connects customer operations, product workflows, backend services, release controls, and production signals.</desc>
  <rect width="1440" height="900" fill="#FFFFFF"/>
  <path d="M36 36h1368v828H36z" fill="#FFFFFF" stroke="#473C33" stroke-width="4"/>
  <path d="M36 36h1368v22H36z" fill="#ABC270"/>
  <g font-family="Mona Sans, Arial, sans-serif" fill="#473C33">
    <text x="84" y="122" font-size="18" font-weight="760" letter-spacing="2">ENTERPRISE SYSTEMS · OPERABLE AT SCALE</text>
    <text x="84" y="198" font-size="58" font-weight="760">FROM PRESSURE</text>
    <text x="84" y="258" font-size="58" font-weight="760">TO RELIABLE FLOW</text>
    <text x="86" y="300" font-size="20">Clear ownership, resilient services, controlled releases, visible production signals.</text>
  </g>
  <g transform="translate(1010 82)">
    <circle cx="145" cy="145" r="140" fill="#FEC868" stroke="#473C33" stroke-width="4"/>
    <path d="M69 103h152v112H69z" fill="#ABC270" stroke="#473C33" stroke-width="4"/>
    <path d="M93 135h104M93 163h76M93 191h92" stroke="#FFFFFF" stroke-linecap="round" stroke-width="9"/>
    <circle cx="224" cy="218" r="42" fill="#FDA769" stroke="#473C33" stroke-width="4"/>
    <path d="m204 217 14 14 27-32" fill="none" stroke="#473C33" stroke-linecap="round" stroke-linejoin="round" stroke-width="7"/>
  </g>
  <path d="M126 476h1188" stroke="#473C33" stroke-width="6"/>
  <path d="M126 476h1188" stroke="#FEC868" stroke-width="18"/>
  <g font-family="Mona Sans, Arial, sans-serif" fill="#473C33" text-anchor="middle">
    <g transform="translate(154 382)"><rect width="236" height="146" fill="#ABC270" stroke="#473C33" stroke-width="4"/><text x="118" y="50" font-size="16" font-weight="760">OPERATIONS</text><text x="118" y="82" font-size="22" font-weight="760">CUSTOMER FLOW</text><text x="118" y="113" font-size="16">Requests · support</text></g>
    <g transform="translate(458 382)"><rect width="236" height="146" fill="#FEC868" stroke="#473C33" stroke-width="4"/><text x="118" y="50" font-size="16" font-weight="760">PRODUCT</text><text x="118" y="82" font-size="22" font-weight="760">WORKFLOWS</text><text x="118" y="113" font-size="16">Plans · payments</text></g>
    <g transform="translate(762 382)"><rect width="236" height="146" fill="#FDA769" stroke="#473C33" stroke-width="4"/><text x="118" y="50" font-size="16" font-weight="760">BACKEND</text><text x="118" y="82" font-size="22" font-weight="760">SERVICES</text><text x="118" y="113" font-size="16">Contracts · integrations</text></g>
    <g transform="translate(1066 382)"><rect width="236" height="146" fill="#ABC270" stroke="#473C33" stroke-width="4"/><text x="118" y="50" font-size="16" font-weight="760">DELIVERY</text><text x="118" y="82" font-size="22" font-weight="760">RELEASE CONTROL</text><text x="118" y="113" font-size="16">Review · rollback</text></g>
  </g>
  <g transform="translate(154 620)" font-family="Mona Sans, Arial, sans-serif" fill="#473C33">
    <path d="M0 0h1148v134H0z" fill="#FFFFFF" stroke="#473C33" stroke-width="4"/>
    <path d="M0 0h266v134H0z" fill="#FEC868" stroke="#473C33" stroke-width="4"/>
    <text x="34" y="49" font-size="16" font-weight="760">PRODUCTION SIGNALS</text>
    <text x="34" y="82" font-size="25" font-weight="760">VISIBLE &amp; OWNED</text>
    <text x="310" y="48" font-size="17" font-weight="760">Operational clarity</text><text x="310" y="79" font-size="17">Errors have owners and recovery paths.</text>
    <text x="650" y="48" font-size="17" font-weight="760">Change confidence</text><text x="650" y="79" font-size="17">Preview, checks, release, observe.</text>
    <text x="960" y="48" font-size="17" font-weight="760">Scale</text><text x="960" y="79" font-size="17">Thousands of moving parts.</text>
  </g>
  <path d="M272 528v92M576 528v92M880 528v92M1184 528v92" stroke="#473C33" stroke-dasharray="8 9" stroke-width="4"/>
</svg>
